<svg id="Capa_1" enable-background="new 0 0 512 512" height="512" viewBox="0 0 512 512" width="512" xmlns="http://www.w3.org/2000/svg"><g><g><path d="m203.798 506.407 266.14-119.957c19.775-35.34 31.062-76.074 31.062-119.45 0-135.31-109.69-245-245-245s-245 109.69-245 245c0 117.393 82.571 215.483 192.798 239.407z" fill="#41416b"/></g><g><g><path d="m301.115 123.114c-2.231 0-4.401.252-6.492.716 2.313-5.575 3.595-11.685 3.595-18.096 0-26.104-21.162-47.266-47.266-47.266-4.272 0-8.408.577-12.344 1.639-3.946-33.842-32.708-60.107-67.608-60.107s-63.662 26.265-67.608 60.106c-3.936-1.062-8.072-1.639-12.344-1.639-26.104 0-47.266 21.162-47.266 47.266 0 6.411 1.283 12.521 3.595 18.096-2.091-.464-4.262-.716-6.492-.716-16.505.001-29.885 13.381-29.885 29.886s13.38 29.885 29.885 29.885h260.229c16.505 0 29.885-13.38 29.885-29.885.001-16.505-13.379-29.885-29.884-29.885z" fill="#e6f8fc"/></g><g><g><path d="m171 138.902c0-.926.038-1.842.094-2.753-.032 0-.063.001-.094.001-37.597 0-68.075-30.478-68.075-68.075 0-2.696.162-5.355.467-7.969v.001c-3.936-1.062-8.072-1.639-12.344-1.639-26.104 0-47.266 21.162-47.266 47.266 0 6.411 1.283 12.521 3.595 18.096-2.091-.464-4.262-.716-6.492-.716-16.505 0-29.885 13.38-29.885 29.885s13.38 29.885 29.885 29.885h174.098c-24.291.001-43.983-19.691-43.983-43.982z" fill="#b8e9fa"/></g></g></g><g><g><path d="m450.913 296.852.025.017c3.31-14.43 5.062-29.455 5.062-44.889 0-73.78-39.963-138.219-99.419-172.877l-.032.02-39.38-17.528-.002-.053c-19.275-6.184-39.818-9.535-61.146-9.535-18.823 0-37.037 2.605-54.306 7.467l.046.035-145.717 192.164c0 .102-.004.204-.004.306 0 29.826 6.541 58.122 18.249 83.546l.021-.033 270.109 95.876-.002.02c25.298-12.488 47.575-30.16 65.437-51.641z" fill="#2a9ddd"/></g><g><path d="m201.76 59.509-145.716 192.164c0 .102-.004.204-.004.306 0 29.826 6.541 58.122 18.249 83.546l.021-.033 96.181 34.14c-24.065-33.012-38.269-73.672-38.269-117.653 0-97.415 69.663-178.547 161.888-196.334-12.333-2.379-25.064-3.639-38.091-3.639-18.823 0-37.037 2.605-54.306 7.467z" fill="#167cc1"/></g><g><path d="m74.311 335.493c42.411 92.56 149.045 139.462 247.217 105.426 7.921-2.746 15.555-5.947 22.892-9.551l-32.346-31.492c-4.451-4.333-10.193-7.098-16.356-7.875l-68.878-8.683c-9.194-1.159-17.255-6.705-21.622-14.878l-12.333-23.076c-3.323-6.217-8.827-10.986-15.455-13.39l-40.86-14.82c-6.831-2.478-14.35-2.259-21.026.611z" fill="#a3ea6e"/></g><g><path d="m144.052 319.869-7.483-2.714c-6.831-2.478-14.35-2.259-21.026.611l-41.233 17.728c38.486 83.993 129.857 130.385 219.8 112.82-69.659-13.436-126.44-63.008-150.058-128.445z" fill="#85d249"/></g><g><path d="m413.529 220.903c-5.796-11.775-18.935-18.011-31.722-15.056l-25.94 5.995c-12.255 2.832-24.907-2.775-31.04-13.756-5.746-10.289-4.505-23.063 3.115-32.053l25.049-29.555c4.849-5.721 7.225-13.135 6.605-20.608l-3.047-36.746c-12.448-7.233-25.658-13.108-39.38-17.528l-14.421 13.714c-5.266 5.008-12.241 7.821-19.508 7.867l-43.464.275c-7.05.045-13.867-2.519-19.14-7.197l-18.876-16.746c-3.759 1.063-7.509 2.235-11.247 3.531-82.586 28.631-134.413 105.956-134.513 188.692l17.168 4.14c7.922 1.91 16.282.309 22.937-4.393l57.683-40.759c8.928-6.309 20.695-6.903 30.213-1.526l17.054 9.635c9.649 5.451 15.222 16.039 14.253 27.079l-1.065 12.127c-.986 11.231 4.797 21.974 14.715 27.335l36.607 19.788c6.973 3.769 15.209 4.437 22.699 1.841l24.577-8.521c10.705-3.711 22.591-.671 30.2 7.723l66.76 73.656c19.977-24.069 34.071-52.555 41.113-83.006z" fill="#a3ea6e"/></g><g><path d="m330.998 267.584-45.667 11.503c-4.984 1.255-10.259.544-14.732-1.986l-19.307-10.921c-5.606-3.171-9.342-8.848-10.036-15.252l-4.569-42.136c-.756-6.974-5.11-13.041-11.475-15.991l-45.34-21.009c-5.598-2.594-12.08-2.459-17.565.366l-17.088 8.8c15.879-41.791 45.361-76.879 83.046-99.85-2.762-1.193-5.342-2.823-7.63-4.853l-18.875-16.746c-3.759 1.063-7.509 2.235-11.247 3.531-82.586 28.631-134.413 105.956-134.513 188.692l17.168 4.14c7.922 1.91 16.283.309 22.938-4.394l37.986-26.842 19.696-13.917c8.928-6.309 20.695-6.903 30.213-1.526l17.055 9.635c9.649 5.451 15.222 16.039 14.252 27.079l-1.065 12.127c-.986 11.231 4.797 21.974 14.715 27.335l36.607 19.788c6.973 3.769 15.209 4.437 22.699 1.841l24.577-8.521c10.705-3.711 22.591-.671 30.2 7.723l66.76 73.656c2.735-3.295 5.349-6.68 7.86-10.135l-65.348-94.148c-4.749-6.84-13.24-10.023-21.315-7.989z" fill="#85d249"/></g></g><g><g><path d="m469.938 386.451c-7.353-4.219-15.867-6.645-24.952-6.645-4.539 0-8.933.613-13.115 1.741-4.193-35.956-34.752-63.863-71.834-63.863s-67.64 27.906-71.834 63.863c-4.182-1.129-8.576-1.741-13.115-1.741-27.736 0-50.22 22.485-50.22 50.22 0 6.812 1.363 13.304 3.82 19.227-2.222-.492-4.528-.76-6.898-.76-17.537 0-31.753 14.216-31.753 31.753 0 10.855 5.451 20.434 13.761 26.16 16.824 3.653 34.285 5.594 52.202 5.594 91.934 0 172.026-50.646 213.938-125.549z" fill="#e6f8fc"/></g><g><g><path d="m288.204 381.547v.001z" fill="#fff"/></g><g><path d="m360.037 465.268c0-.984.041-1.957.1-2.925-.034 0-.067.001-.1.001-39.946 0-72.329-32.383-72.329-72.33 0-2.865.172-5.689.496-8.467-4.182-1.129-8.576-1.741-13.115-1.741-27.736 0-50.22 22.485-50.22 50.22 0 6.812 1.363 13.304 3.82 19.227-2.222-.492-4.528-.76-6.898-.76-17.537 0-31.753 14.216-31.753 31.753 0 10.855 5.451 20.434 13.761 26.16 16.823 3.653 34.284 5.594 52.201 5.594 39.2 0 76.241-9.222 109.097-25.59-3.228-6.351-5.06-13.53-5.06-21.142z" fill="#b8e9fa"/></g></g></g></g></svg>